<svg width="54" height="54" viewBox="0 0 54 54" fill="none" xmlns="http://www.w3.org/2000/svg">
<path d="M26.9987 5.66683C21.3407 5.66683 15.9145 7.91444 11.9138 11.9152C7.91298 15.916 5.66536 21.3422 5.66536 27.0002C5.66536 32.6581 7.91298 38.0843 11.9138 42.0851C15.9145 46.0859 21.3407 48.3335 26.9987 48.3335C32.6567 48.3335 38.0829 46.0859 42.0836 42.0851C46.0844 38.0843 48.332 32.6581 48.332 27.0002C48.332 21.3422 46.0844 15.916 42.0836 11.9152C38.0829 7.91444 32.6567 5.66683 26.9987 5.66683ZM0.332031 27.0002C0.332031 12.2722 12.2707 0.333496 26.9987 0.333496C41.7267 0.333496 53.6654 12.2722 53.6654 27.0002C53.6654 41.7282 41.7267 53.6668 26.9987 53.6668C12.2707 53.6668 0.332031 41.7282 0.332031 27.0002ZM15.78 15.7815C16.2801 15.2816 16.9583 15.0007 17.6654 15.0007C18.3725 15.0007 19.0506 15.2816 19.5507 15.7815L26.9987 23.2295L34.4467 15.7815C34.6927 15.5268 34.9869 15.3237 35.3123 15.1839C35.6376 15.0441 35.9876 14.9706 36.3416 14.9675C36.6957 14.9644 37.0469 15.0319 37.3746 15.166C37.7023 15.3001 38 15.4981 38.2504 15.7484C38.5008 15.9988 38.6988 16.2966 38.8329 16.6243C38.967 16.952 39.0344 17.3032 39.0314 17.6572C39.0283 18.0113 38.9547 18.3612 38.815 18.6866C38.6752 19.0119 38.4721 19.3062 38.2174 19.5522L30.7694 27.0002L38.2174 34.4482C38.7031 34.9511 38.9719 35.6247 38.9658 36.3239C38.9598 37.0231 38.6793 37.6919 38.1849 38.1863C37.6905 38.6808 37.0216 38.9612 36.3224 38.9673C35.6232 38.9734 34.9496 38.7046 34.4467 38.2188L26.9987 30.7708L19.5507 38.2188C19.0478 38.7046 18.3742 38.9734 17.675 38.9673C16.9758 38.9612 16.3069 38.6808 15.8125 38.1863C15.3181 37.6919 15.0376 37.0231 15.0316 36.3239C15.0255 35.6247 15.2943 34.9511 15.78 34.4482L23.228 27.0002L15.78 19.5522C15.2801 19.0521 14.9993 18.3739 14.9993 17.6668C14.9993 16.9597 15.2801 16.2816 15.78 15.7815Z" fill="#FD424B"/>
</svg>
