<svg width="57" height="50" viewBox="0 0 57 50" fill="none" xmlns="http://www.w3.org/2000/svg">
<path d="M25.0016 38C25.0016 38.7957 25.3177 39.5587 25.8803 40.1213C26.4429 40.6839 27.2059 41 28.0016 41C28.7972 41 29.5603 40.6839 30.1229 40.1213C30.6855 39.5587 31.0016 38.7957 31.0016 38C31.0016 37.2043 30.6855 36.4413 30.1229 35.8787C29.5603 35.3161 28.7972 35 28.0016 35C27.2059 35 26.4429 35.3161 25.8803 35.8787C25.3177 36.4413 25.0016 37.2043 25.0016 38ZM26.0016 19V30.5C26.0016 30.775 26.2266 31 26.5016 31H29.5016C29.7766 31 30.0016 30.775 30.0016 30.5V19C30.0016 18.725 29.7766 18.5 29.5016 18.5H26.5016C26.2266 18.5 26.0016 18.725 26.0016 19ZM55.7328 46.5L29.7328 1.5C29.3453 0.83125 28.6766 0.5 28.0016 0.5C27.3266 0.5 26.6516 0.83125 26.2703 1.5L0.270334 46.5C-0.498416 47.8375 0.464084 49.5 2.00158 49.5H54.0016C55.5391 49.5 56.5016 47.8375 55.7328 46.5ZM6.76408 44.7562L28.0016 7.99375L49.2391 44.7562H6.76408Z" fill="#FF9816"/>
</svg>
